<?xml version="1.0" standalone="no"?>
<!DOCTYPE svg PUBLIC "-//W3C//DTD SVG 20010904//EN"
 "http://www.w3.org/TR/2001/REC-SVG-20010904/DTD/svg10.dtd">
<svg version="1.0" xmlns="http://www.w3.org/2000/svg"
 width="512.000000pt" height="512.000000pt" viewBox="0 0 512.000000 512.000000"
 preserveAspectRatio="xMidYMid meet">
<metadata>
Created by potrace 1.14, written by Peter Selinger 2001-2017
</metadata>
<g transform="translate(0.000000,512.000000) scale(0.100000,-0.100000)"
fill="#000000" stroke="none">
<path d="M2092 4100 c-43 -6 -71 -30 -72 -61 0 -11 -13 -19 -42 -23 -48 -8
-188 -54 -202 -67 -5 -4 -20 1 -34 11 -35 28 -56 25 -120 -17 -135 -88 -173
-136 -148 -185 12 -22 10 -27 -10 -47 -24 -23 -90 -119 -100 -145 -3 -9 -16
-15 -29 -14 -45 4 -70 -20 -98 -93 -15 -39 -35 -115 -44 -169 l-17 -99 -47
-10 c-134 -29 -252 -103 -331 -210 -131 -175 -141 -420 -25 -606 44 -71 138
-157 211 -194 113 -58 139 -60 612 -61 237 0 433 -2 436 -5 3 -3 0 -35 -7 -70
-14 -75 -2 -118 36 -128 13 -4 66 -7 117 -7 84 0 93 -2 88 -17 -3 -10 -8 -45
-12 -78 -3 -33 -7 -67 -9 -75 -1 -8 -6 -44 -10 -80 -4 -36 -9 -73 -11 -84 -2
-10 -6 -44 -9 -75 -4 -31 -8 -63 -10 -71 -2 -8 -7 -46 -11 -85 -3 -38 -8 -72
-9 -75 -2 -3 -6 -37 -10 -75 -4 -39 -9 -79 -11 -89 -5 -27 25 -74 51 -78 12
-3 31 -1 42 3 22 8 35 26 253 369 76 118 169 265 208 325 39 61 88 137 108
170 21 33 62 97 91 143 l54 82 492 0 c541 0 554 1 673 61 126 63 218 171 266
314 24 70 26 91 23 180 -5 155 -54 268 -160 371 -80 78 -196 138 -287 148 -31
3 -32 5 -54 95 -87 353 -417 577 -779 527 -49 -6 -152 -39 -194 -61 -17 -8
-31 -12 -31 -8 0 16 -97 111 -168 166 -78 60 -203 125 -298 156 -113 36 -271
53 -362 41z"/>
<path d="M1193 1879 c-12 -4 -39 -38 -60 -74 -21 -37 -50 -88 -65 -113 -33
-57 -35 -95 -6 -122 42 -39 84 -22 124 48 15 26 34 55 42 65 8 9 12 17 9 17
-4 0 7 21 23 47 17 26 30 59 30 73 0 46 -51 77 -97 59z"/>
<path d="M1835 1879 c-23 -12 -141 -211 -149 -253 -4 -21 1 -34 19 -52 40 -39
89 -25 122 35 11 20 41 72 66 116 35 61 44 87 40 108 -8 41 -58 65 -98 46z"/>
<path d="M3304 1878 c-23 -11 -154 -232 -154 -259 0 -24 39 -69 60 -69 43 0
67 24 125 127 33 59 63 116 66 127 8 29 -9 62 -38 75 -28 13 -31 13 -59 -1z"/>
<path d="M4004 1878 c-21 -10 -154 -229 -154 -253 0 -29 24 -64 48 -70 49 -12
74 10 143 132 59 103 66 120 58 147 -13 44 -54 64 -95 44z"/>
<path d="M1512 1386 c-11 -11 -47 -70 -80 -129 -53 -95 -59 -112 -51 -137 13
-37 49 -55 86 -43 22 7 43 35 95 124 37 63 67 126 68 140 0 56 -80 87 -118 45z"/>
<path d="M2833 1395 c-12 -8 -48 -62 -82 -120 -73 -128 -78 -149 -39 -185 12
-11 32 -20 45 -20 27 0 68 39 89 85 7 16 25 48 39 70 62 97 68 133 29 164 -32
25 -52 26 -81 6z"/>
<path d="M3551 1397 c-13 -6 -31 -26 -40 -42 -9 -17 -38 -67 -64 -112 -54 -92
-58 -124 -16 -156 54 -40 92 -4 188 176 37 69 39 96 8 125 -27 25 -42 27 -76
9z"/>
</g>
</svg>
